<svg xmlns="http://www.w3.org/2000/svg" viewBox="0 0 100 100"><circle cx="50" cy="50" r="50" fill="#3a2d3f"/><path d="M22 20 L40 36 L22 44Z M78 20 L60 36 L78 44Z" fill="#9aa0a8"/><path d="M26 27 L35 36 L26 40Z M74 27 L65 36 L74 40Z" fill="#f2b8c6"/><circle cx="50" cy="54" r="29" fill="#9aa0a8"/><circle cx="38" cy="50" r="5" fill="#3c8d4f"/><circle cx="62" cy="50" r="5" fill="#3c8d4f"/><circle cx="39.5" cy="48.5" r="1.3" fill="#fff"/><circle cx="63.5" cy="48.5" r="1.3" fill="#fff"/><path d="M47 60 L53 60 L50 64Z" fill="#f28fa8"/><path d="M50 64 Q46 70 42 67 M50 64 Q54 70 58 67" stroke="#1b1b1b" stroke-width="2" fill="none"/><path d="M20 58 L36 60 M20 64 L36 63 M80 58 L64 60 M80 64 L64 63" stroke="#e8e8e8" stroke-width="1.5"/></svg>
